<?xml version="1.0" ?><svg id="icon" fill="#A09E9E" height="15" width="15" style="enable-background:new 0 0 512 512;" version="1.1" viewBox="0 0 512 512" xml:space="preserve" xmlns="http://www.w3.org/2000/svg" xmlns:xlink="http://www.w3.org/1999/xlink"><g><path d="M389.8684082,250.2744141L211.739502,124.9794922c-2.137207-1.5019531-4.9345703-1.6894531-7.2529297-0.4873047   c-2.3188477,1.2041016-3.7744141,3.5996094-3.7744141,6.2128906v72.1669922H72.9206543c-3.8662109,0-7,3.1337891-7,7v92.2558594   c0,3.8662109,3.1337891,7,7,7h127.7915039v72.1669922c0,2.6132813,1.4555664,5.0087891,3.7744141,6.2128906   c1.0151367,0.5263672,2.1220703,0.7871094,3.2250977,0.7871094c1.4160156,0,2.8261719-0.4296875,4.027832-1.2744141   l178.1289063-125.2949219c1.8637695-1.3105469,2.9726563-3.4472656,2.9726563-5.7255859   S391.7321777,251.5849609,389.8684082,250.2744141z M214.7121582,367.8125v-65.6845703c0-3.8662109-3.1337891-7-7-7H79.9206543   v-78.2558594h127.7915039c3.8662109,0,7-3.1337891,7-7V144.1875L373.6740723,256L214.7121582,367.8125z"/><path d="M439.0793457,123.7050781c-3.8662109,0-7,3.1337891-7,7v250.5898438c0,3.8662109,3.1337891,7,7,7s7-3.1337891,7-7   V130.7050781C446.0793457,126.8388672,442.9455566,123.7050781,439.0793457,123.7050781z"/></g></svg>