<?xml version="1.0" ?><svg id="icon" fill="#A09E9E" height="15" width="15" style="enable-background:new 0 0 512 512;" version="1.1" viewBox="0 0 512 512" xml:space="preserve" xmlns="http://www.w3.org/2000/svg" xmlns:xlink="http://www.w3.org/1999/xlink"><g><path d="M373.611084,202.8720703H245.8195801v-72.1669922c0-2.6132813-1.4555664-5.0087891-3.7744141-6.2128906   c-2.3178711-1.2021484-5.1152344-1.0146484-7.2529297,0.4873047L56.6633301,250.2744141   c-1.8637695,1.3105469-2.9726563,3.4472656-2.9726563,5.7255859s1.1088867,4.4150391,2.9726563,5.7255859l178.1289063,125.2949219   c1.2016602,0.8447266,2.6113281,1.2744141,4.027832,1.2744141c1.1030273,0,2.2099609-0.2607422,3.2250977-0.7871094   c2.3188477-1.2041016,3.7744141-3.5996094,3.7744141-6.2128906v-72.1669922H373.611084c3.8662109,0,7-3.1337891,7-7v-92.2558594   C380.611084,206.0058594,377.4772949,202.8720703,373.611084,202.8720703z M366.611084,295.1279297H238.8195801   c-3.8662109,0-7,3.1337891-7,7V367.8125L72.857666,256l158.9619141-111.8125v65.6845703c0,3.8662109,3.1337891,7,7,7H366.611084   V295.1279297z"/><path d="M451.3093262,123.7050781c-3.8662109,0-7,3.1337891-7,7v250.5898438c0,3.8662109,3.1337891,7,7,7s7-3.1337891,7-7   V130.7050781C458.3093262,126.8388672,455.1755371,123.7050781,451.3093262,123.7050781z"/></g></svg>